<?xml version="1.0" standalone="no"?>
<!DOCTYPE svg PUBLIC "-//W3C//DTD SVG 20010904//EN"
 "http://www.w3.org/TR/2001/REC-SVG-20010904/DTD/svg10.dtd">
<svg version="1.0" xmlns="http://www.w3.org/2000/svg"
 width="500.000000pt" height="407.000000pt" viewBox="0 0 500.000000 407.000000"
 preserveAspectRatio="xMidYMid meet">
<metadata>
Created by potrace 1.16, written by Peter Selinger 2001-2019
</metadata>
<g transform="translate(0.000000,407.000000) scale(0.100000,-0.100000)"
fill="#000000" stroke="none">
<path d="M4531 3323 l-1 -393 -403 0 c-410 0 -427 -1 -427 -37 0 -10 84 -13
430 -13 l430 0 0 395 c0 237 -4 395 -9 395 -5 0 -12 10 -14 23 -2 12 -5 -155
-6 -370z"/>
<path d="M3005 3546 c-13 -13 -27 -35 -30 -49 -6 -23 -9 -24 -46 -14 -52 13
-113 -5 -135 -39 -23 -34 -13 -97 24 -150 30 -42 30 -43 11 -60 -44 -40 -14
-95 58 -110 24 -5 32 -13 36 -34 7 -33 53 -90 73 -90 15 0 12 24 -7 78 -5 13
-9 37 -9 53 0 22 5 29 20 29 23 0 26 10 8 29 -10 11 -10 14 -1 18 7 2 28 15
48 29 l36 24 37 -29 c20 -16 53 -34 72 -38 34 -9 35 -11 40 -65 5 -52 9 -59
52 -98 40 -35 50 -39 67 -30 32 16 74 78 68 98 -2 11 4 30 14 43 10 13 19 34
19 47 0 27 -22 73 -44 91 -14 12 -12 16 17 35 17 12 33 29 35 39 4 22 -42 40
-85 33 -23 -3 -33 -1 -33 8 0 22 -29 41 -42 28 -8 -8 -29 6 -79 52 -107 99
-175 121 -224 72z"/>
<path d="M2134 3511 c6 -10 -96 -91 -114 -91 -6 0 -8 -5 -5 -10 4 -6 11 -8 16
-5 5 3 6 0 4 -7 -3 -8 7 -25 22 -38 l28 -25 -25 30 -25 30 28 -24 c15 -14 26
-30 25 -37 -2 -9 112 -161 157 -208 6 -6 62 -74 124 -151 63 -77 118 -144 122
-149 4 -5 19 -6 34 -2 29 7 105 72 105 90 0 6 -41 61 -91 121 -50 61 -145 176
-211 257 -66 81 -125 151 -131 155 -7 4 -5 -2 3 -13 14 -19 14 -19 -8 0 -23
20 -30 32 -12 21 18 -11 10 9 -15 38 -23 25 -43 38 -31 18z"/>
<path d="M4023 3404 c-2 -6 -3 -46 -1 -90 l3 -79 35 3 c69 5 150 87 150 151 0
18 -8 20 -91 23 -60 2 -93 -1 -96 -8z"/>
<path d="M3380 2869 c11 -37 -11 -65 -58 -79 -74 -20 -106 -10 -137 45 -10 17
-13 16 -60 -8 -28 -14 -58 -33 -67 -44 -56 -61 -108 -259 -144 -543 -9 -69
-17 -126 -18 -126 -3 -3 -261 -63 -262 -61 -1 1 -23 94 -49 207 -25 113 -52
216 -58 230 l-12 25 -495 0 -495 0 -3 -25 c-2 -14 27 -152 63 -305 36 -154 73
-311 82 -350 9 -38 21 -73 27 -77 6 -4 352 -8 769 -8 l757 0 0 25 c0 14 -6 25
-12 26 -26 2 -336 -4 -430 -8 l-97 -5 1 29 c1 15 -2 39 -7 51 -7 24 -6 24 59
20 36 -1 66 0 66 3 0 6 166 49 192 49 18 0 34 -74 22 -103 -8 -22 11 -22 148
2 92 15 108 16 113 4 8 -21 8 -21 -27 -26 -29 -4 -27 -5 12 -7 123 -7 620 -10
658 -5 26 4 46 13 49 22 8 20 -20 198 -54 353 -38 171 -122 443 -162 524 -58
115 -144 167 -302 184 l-76 8 7 -27z m-148 -684 c8 -22 19 -63 22 -90 l7 -50
-95 -32 c-85 -28 -95 -29 -86 -12 10 18 21 67 56 258 l17 95 32 -65 c17 -35
38 -82 47 -104z"/>
<path d="M4850 2078 c0 -370 -4 -679 -9 -686 -6 -10 -70 -13 -303 -12 -162 0
-297 -2 -301 -6 -3 -4 -2 -15 4 -25 9 -18 27 -19 318 -19 245 0 311 3 320 13
12 15 17 1360 5 1390 -3 10 -12 17 -20 17 -12 0 -14 -104 -14 -672z"/>
<path d="M95 1944 c-52 -27 -74 -55 -86 -111 -17 -76 1 -181 51 -300 40 -93
40 -95 43 -236 3 -125 6 -149 26 -190 25 -51 72 -93 165 -148 71 -42 83 -58
107 -154 18 -70 54 -161 77 -193 7 -10 19 -8 58 9 l49 22 -43 15 c-58 19 -48
25 12 7 44 -14 52 -13 121 10 41 13 90 27 110 31 19 3 37 9 39 13 3 4 -34 52
-81 106 -78 92 -215 270 -289 376 -23 33 -48 53 -105 81 -95 48 -199 114 -199
128 0 5 19 -5 43 -23 44 -33 206 -122 212 -115 2 2 -15 37 -38 78 -75 133
-224 476 -212 488 2 3 8 -4 11 -14 4 -10 24 -62 45 -114 74 -189 84 -205 92
-152 2 15 3 7 1 -17 -3 -36 4 -58 42 -133 26 -49 82 -142 125 -206 91 -137
260 -356 274 -354 19 2 27 70 23 202 -3 77 -1 118 3 95 12 -59 10 -234 -2
-278 -11 -42 -9 -49 42 -104 l37 -40 66 12 c37 7 68 14 70 16 19 25 116 182
116 188 0 4 -12 18 -26 32 -32 30 -50 64 -79 149 -50 148 -104 195 -284 246
-129 37 -173 83 -275 296 -76 158 -136 236 -209 273 -59 29 -90 31 -132 9z"/>
<path d="M811 1673 l-1 -113 30 0 c20 0 30 -5 30 -15 0 -12 14 -15 70 -15 56
0 70 3 70 15 0 10 10 15 30 15 l30 0 0 88 0 87 -124 -3 -125 -3 -4 28 c-2 15
-5 -23 -6 -84z"/>
<path d="M3896 1484 c-36 -46 -111 -81 -201 -94 -39 -5 -183 -10 -321 -10
-199 0 -254 -3 -269 -14 -17 -12 -19 -25 -17 -88 4 -103 32 -542 35 -542 1 -1
29 -14 62 -31 92 -46 213 -171 259 -266 20 -42 36 -83 36 -91 0 -10 -13 -18
-37 -22 -21 -3 -67 -19 -101 -36 -49 -23 -79 -30 -130 -32 l-67 -1 55 -6 c52
-6 54 -7 32 -19 -15 -9 -22 -21 -20 -35 l3 -22 365 0 365 0 0 25 c0 19 -13 34
-55 62 -30 21 -73 44 -95 52 -36 13 24 15 568 15 482 1 607 4 607 14 0 18 -69
117 -86 124 -8 3 -14 10 -14 15 0 6 -8 16 -17 23 -16 12 -14 16 16 51 53 60
73 116 78 219 3 56 14 118 29 165 31 95 34 252 6 286 -34 42 -98 57 -145 33
-12 -6 -67 -58 -123 -115 -71 -73 -114 -110 -150 -125 -27 -12 -62 -32 -77
-45 l-28 -24 -42 24 c-56 32 -174 69 -188 60 -7 -4 -9 -3 -6 3 5 8 -158 69
-175 65 -5 -1 -8 2 -8 7 0 5 -19 21 -42 35 -24 14 -59 39 -78 56 -31 27 -32
30 -12 30 32 0 50 36 58 113 8 79 -8 107 -59 107 l-30 0 20 23 c20 23 37 47
31 47 -2 0 -16 -16 -32 -36z"/>
<path d="M2295 341 c-21 -73 -35 -80 -158 -83 -83 -2 -86 -2 -24 -5 l68 -4
-42 -22 c-43 -23 -68 -51 -57 -62 14 -14 176 -27 255 -20 92 8 109 17 119 70
5 29 11 34 38 38 l31 4 -32 1 c-18 1 -33 3 -33 5 0 1 7 27 15 57 22 84 26 80
-74 80 l-90 0 -16 -59z"/>
<path d="M2715 388 c-2 -7 -6 -34 -10 -60 -7 -51 -24 -68 -69 -68 -26 0 -30
-7 -41 -72 l-7 -36 46 -7 c67 -10 213 4 231 22 8 8 15 30 15 49 l0 34 84 0
c58 0 86 -4 89 -12 3 -8 6 -6 6 5 1 15 -10 17 -90 17 l-90 0 7 70 7 70 -87 0
c-61 0 -88 -4 -91 -12z"/>
</g>
</svg>
